PathFileType	4	(X/Y/Z)	Run_300 02
DataRate	CameraRate	NumFrames	NumMarkers	Units	OrigDataRate	OrigDataStartFrame	OrigNumFrames
100	100	8	42	mm	100	183	128
Frame#	Time	RASI			LPSI			RPSI			RTH1			RTH2			RTH3			LTH1			LTH2			LTH3			RTB1			RTB2			RTB3			LTB1			LTB2			LTB3			RCAL			RTOE			RMT5			LCAL			LTOE			LMT5			LACR			RACR			CLAV			C7			RUA1			RUA2			RUA3			RLEL			RMEL			LUA1			LUA2			LUA3			LLEL			LMEL			RFAsuperior			RFAradius			RFAulna			LFAsuperior			LFAradius			LFAulna			LASI		
		X1	Y1	Z1	X2	Y2	Z2	X3	Y3	Z3	X4	Y4	Z4	X5	Y5	Z5	X6	Y6	Z6	X7	Y7	Z7	X8	Y8	Z8	X9	Y9	Z9	X10	Y10	Z10	X11	Y11	Z11	X12	Y12	Z12	X13	Y13	Z13	X14	Y14	Z14	X15	Y15	Z15	X16	Y16	Z16	X17	Y17	Z17	X18	Y18	Z18	X19	Y19	Z19	X20	Y20	Z20	X21	Y21	Z21	X22	Y22	Z22	X23	Y23	Z23	X24	Y24	Z24	X25	Y25	Z25	X26	Y26	Z26	X27	Y27	Z27	X28	Y28	Z28	X29	Y29	Z29	X30	Y30	Z30	X31	Y31	Z31	X32	Y32	Z32	X33	Y33	Z33	X34	Y34	Z34	X35	Y35	Z35	X36	Y36	Z36	X37	Y37	Z37	X38	Y38	Z38	X39	Y39	Z39	X40	Y40	Z40	X41	Y41	Z41	X42	Y42	Z42	

183	  1.830000	1004.599404	1085.374953	-228.589350	856.405936	1146.432895	-415.843662	847.969778	1144.771621	-301.076222	946.046415	975.696310	-172.051480	964.907156	825.635834	-196.241618	1077.408950	714.688616	-201.008136	926.565349	945.383679	-526.073791	809.858044	818.695716	-479.252591	822.394678	676.765677	-473.487561	1122.644809	471.548258	-257.693374	1024.584756	467.318759	-197.724088	1018.523948	313.579214	-268.222231	792.592136	445.220526	-406.030421	664.186438	389.003033	-444.139091	669.270077	267.231353	-383.849193	852.922487	237.523229	-275.076353	1076.755604	141.096962	-278.573862	1015.806592	134.662637	-188.179379	499.677165	215.785734	-348.522790	684.393378	 70.375040	-324.951507	617.035120	 49.577236	-414.208502	999.744739	1568.413691	-512.191840	980.216722	1557.573046	-189.916576	1049.931314	1524.070246	-313.622961	933.180688	1589.399968	-360.045025	843.755304	1501.811899	-151.156563	860.442662	1439.377595	-103.474516	764.109501	1399.695898	-76.808160	707.759663	1358.683257	-55.505040	712.053127	1327.242625	-140.411928	910.751215	1468.202160	-576.966827	945.255862	1391.457910	-596.451717	878.099953	1323.857281	-627.922701	864.647483	1257.904962	-647.106321	840.313738	1237.470252	-560.291871	771.899981	1270.276618	-41.311999	910.446010	1172.222949	-107.066675	863.949334	1139.063846	-68.484434	939.640852	1225.851648	-628.420994	1085.355900	1275.462915	-519.564541	1098.989651	1209.162758	-545.784078	1010.150556	1069.740669	-473.150228	
184	  1.840000	1005.440384	1092.540177	-229.212504	858.269631	1151.982047	-416.478136	848.878835	1151.176582	-301.712438	945.590635	983.021371	-171.183654	964.328003	831.644146	-197.511986	1073.944025	719.980215	-203.106828	926.221291	950.875676	-526.340278	806.019867	827.386805	-479.633578	814.354954	685.306757	-473.969563	1131.102491	474.428079	-259.879264	1034.579883	460.652147	-198.913932	1041.392016	307.881517	-271.949644	778.922305	454.179511	-407.727903	650.021264	400.038902	-446.545823	654.162267	277.306634	-387.418924	883.489255	217.054477	-279.471753	1115.134148	141.149383	-283.606101	1055.080186	128.877927	-193.181825	486.190158	232.516644	-353.928605	658.998853	 73.471954	-326.500026	590.996844	 55.674592	-415.807544	1000.671062	1575.642278	-510.827837	979.333659	1563.689484	-189.757268	1049.233490	1530.004914	-312.749436	932.694289	1595.342584	-359.599436	841.720679	1510.411772	-152.804471	857.187386	1447.925345	-104.451500	759.717280	1410.172459	-79.534254	702.488393	1369.232739	-59.288874	708.000769	1337.550939	-143.867344	912.054218	1476.542517	-577.289297	946.361457	1400.266713	-597.286396	879.006891	1333.421553	-630.063802	866.280374	1267.051565	-649.362280	840.319721	1245.959111	-562.936759	766.403157	1280.912710	-43.930253	906.391180	1183.303760	-107.149674	859.032868	1149.523540	-70.269044	941.351416	1236.882860	-629.022004	1083.524537	1289.501659	-517.557458	1099.745952	1223.486586	-543.719179	1011.806924	1074.524518	-472.483958	
185	  1.850000	1006.176807	1098.504043	-230.068869	859.767007	1156.774360	-416.906003	849.646943	1156.258123	-302.600684	945.503422	988.930842	-170.602179	962.360826	835.917136	-199.294469	1069.435193	722.808384	-205.040708	926.087614	955.961650	-526.902360	803.287496	835.353901	-479.914032	808.168481	693.106923	-474.296672	1138.054341	476.348343	-262.241703	1044.391555	453.157985	-199.732406	1063.313188	302.678708	-275.614202	767.720971	462.401620	-408.869035	638.195382	410.637653	-448.642439	640.665527	287.101111	-390.680662	914.240692	198.199724	-283.079273	1151.598044	142.683714	-290.113231	1093.683886	124.173676	-199.254193	474.490219	249.450283	-359.624182	634.871603	 78.053934	-328.388571	566.218311	 63.309029	-417.785318	1001.384151	1581.810863	-509.636458	978.591605	1569.002675	-189.627550	1048.630240	1534.983502	-311.995798	932.284699	1600.448884	-359.177901	840.008793	1517.962950	-154.271765	854.285123	1455.470681	-105.200725	755.960558	1419.180496	-81.874707	698.087585	1378.231310	-62.528839	704.605799	1346.335487	-146.956935	913.059409	1483.880406	-577.431213	947.009096	1408.222014	-598.012804	879.398408	1342.204014	-632.016674	867.360238	1275.346254	-651.618904	839.981020	1253.587369	-565.557656	761.831090	1290.066005	-46.335155	903.193437	1193.005165	-107.116951	855.044917	1158.611070	-72.012353	942.352639	1246.764193	-629.703124	1081.466361	1301.732465	-516.201681	1099.738651	1235.944854	-541.819903	1013.139129	1078.935768	-471.837754	
186	  1.860000	1006.680572	1103.338577	-230.643377	860.766684	1160.800583	-417.222848	850.192944	1160.210989	-303.325697	945.126161	992.746246	-170.334222	959.208751	838.396737	-200.761865	1064.234501	723.227536	-206.293298	926.320243	960.499574	-527.650106	801.831263	842.253035	-480.049413	804.071941	699.758336	-474.362633	1143.282877	477.352716	-264.342199	1053.328567	445.362603	-200.345730	1083.791068	298.052756	-278.986610	759.070711	469.341243	-409.542159	628.805317	420.443794	-450.540904	628.587512	296.314328	-393.658744	944.416209	181.189041	-285.813311	1185.400926	145.781505	-297.932608	1130.875506	120.534413	-206.469865	464.373197	266.370232	-365.525843	611.821228	 83.925660	-330.706839	542.298384	 72.152518	-419.771353	1001.871211	1586.859376	-508.481410	977.940023	1573.440523	-189.442783	1048.076646	1539.020773	-311.289843	931.900324	1604.615553	-358.689463	838.572107	1524.418300	-155.468107	851.732437	1461.882806	-105.761221	752.790203	1426.587050	-83.775948	694.501514	1385.537270	-65.182503	701.889235	1353.488322	-149.652264	913.752274	1490.165034	-577.337974	947.234315	1415.145303	-598.622816	879.268868	1349.990419	-633.739410	867.874591	1282.586281	-653.790190	839.404719	1260.230846	-568.103356	758.145875	1297.597046	-48.401955	900.837634	1201.250207	-106.948834	852.032576	1166.270713	-73.504308	942.703907	1255.212662	-630.471252	1079.271060	1311.926877	-515.320400	1098.915886	1246.136151	-539.821590	1014.160049	1083.067625	-471.462177	
187	  1.870000	1006.879464	1107.024903	-230.741073	861.240175	1164.018122	-417.523455	850.447768	1163.064433	-303.614890	944.090700	994.338684	-170.430565	955.470883	839.340547	-201.425375	1058.398765	721.779466	-206.780754	927.134754	964.216680	-528.378910	801.805240	847.515106	-480.102674	802.421364	704.678693	-474.179746	1146.579846	477.446554	-266.064715	1060.612435	437.667071	-201.138656	1102.135600	294.002116	-281.919997	752.898428	474.497476	-409.747552	621.847328	429.175639	-452.447401	617.576049	304.816904	-396.299250	973.103630	166.106328	-287.756313	1215.566067	150.683942	-306.634026	1165.723732	118.321234	-214.708180	455.161954	283.043004	-371.492420	589.282395	 90.923291	-333.249704	519.092360	 82.083163	-421.611697	1002.141995	1590.821130	-507.235864	977.366204	1576.934705	-189.087437	1047.569260	1542.149509	-310.546930	931.497787	1607.765397	-358.052621	837.349130	1529.597169	-156.524866	849.588226	1467.057768	-106.190361	750.195183	1432.356809	-85.261446	691.662913	1391.102947	-67.311116	699.866654	1358.954962	-151.899069	914.160763	1495.356442	-577.061506	947.102576	1420.866747	-599.126101	878.712599	1356.591152	-635.289708	867.823046	1288.643296	-655.805307	838.403288	1265.842819	-570.435373	755.322154	1303.460446	-49.998946	899.319716	1207.999960	-106.600606	850.044032	1172.462888	-74.551130	942.443810	1262.007667	-631.262630	1076.996093	1319.893230	-514.647731	1097.310599	1253.757624	-537.736612	1014.888390	1086.793489	-471.364119	
188	  1.880000	1006.765211	1109.337554	-230.547407	861.223672	1166.273781	-417.754648	850.388421	1164.568611	-303.574260	942.762356	994.300666	-170.782496	951.713937	839.198579	-201.449507	1051.694913	719.090030	-206.924751	928.684039	966.729906	-528.837214	803.240479	850.548088	-480.285504	803.543701	707.268784	-473.919427	1147.971814	476.709092	-267.603088	1065.709506	430.353550	-202.564139	1117.711145	290.559752	-284.451402	749.037440	477.588488	-409.454699	617.217771	436.700668	-454.502574	607.291592	312.732052	-398.461469	999.273356	153.029021	-289.204378	1241.048047	157.448402	-315.578315	1197.078787	118.052554	-223.517460	445.920016	299.276208	-377.426830	566.949682	 99.239716	-335.386546	497.176135	 93.249125	-423.481250	1002.194773	1593.737216	-505.906416	976.919771	1579.405219	-188.473946	1047.127108	1544.358665	-309.725477	931.054048	1609.880783	-357.199111	836.318659	1533.286023	-157.539317	847.937902	1470.888613	-106.462602	748.189930	1436.491219	-86.376537	689.521807	1394.935181	-68.983329	698.539466	1362.676963	-153.644559	914.288758	1499.377795	-576.674830	946.686744	1425.262547	-599.490241	877.910597	1361.840971	-636.703877	867.215530	1293.455823	-657.611023	836.662130	1270.447581	-572.411822	753.343022	1307.652262	-51.075781	898.647944	1213.225952	-106.014062	849.117683	1177.155961	-75.035807	941.584346	1267.010508	-631.989295	1074.698677	1325.445108	-514.034010	1095.044284	1258.679030	-535.792501	1015.329626	1089.864137	-471.393239	
189	  1.890000	1006.383472	1110.123384	-230.316163	860.777535	1167.328750	-417.753741	850.055802	1164.537720	-303.461344	941.879989	993.483230	-171.211019	948.098640	838.373271	-201.348612	1044.045081	715.524210	-207.179207	930.982559	967.686545	-528.823088	806.003476	851.018858	-480.851108	807.487404	707.196010	-473.822236	1147.815204	475.366670	-269.243832	1068.577578	423.684055	-204.841838	1130.142465	287.810961	-286.875588	747.243782	478.664064	-408.673351	614.737859	443.073372	-456.703889	597.637856	320.347845	-400.061313	1021.822148	142.113417	-290.708597	1261.137936	165.449494	-324.037619	1223.603501	119.788237	-232.164678	436.091903	315.063527	-383.393831	545.258557	109.365979	-336.409711	477.557141	105.746650	-425.554063	1002.004703	1595.603354	-504.594681	976.697195	1580.748615	-187.611265	1046.763789	1545.575103	-308.852756	930.569110	1610.992002	-356.093184	835.543967	1535.390151	-158.302830	846.862766	1473.236285	-106.461277	746.802191	1438.979783	-87.105565	688.068957	1397.031289	-70.197054	697.897988	1364.603210	-154.822972	914.063241	1502.172579	-576.168096	946.000875	1428.310482	-599.663755	876.974192	1365.652700	-637.897639	866.060446	1297.035740	-659.147342	834.113184	1274.092603	-573.988935	752.214195	1310.169704	-51.645215	898.827490	1216.886647	-105.173323	849.257298	1180.323986	-74.918276	940.116119	1270.191982	-632.604879	1072.420335	1328.409898	-513.484720	1092.252752	1260.934928	-534.226959	1015.484428	1092.040630	-471.447643	
190	  1.900000	1005.785497	1109.579150	-230.139547	859.970093	1166.997599	-417.486693	849.510408	1163.158530	-303.412438	941.799042	992.374618	-171.690962	944.454953	836.996566	-201.456613	1035.994523	711.234568	-207.594779	933.879597	966.944330	-528.290407	809.853123	849.006438	-481.874974	813.876426	704.594753	-473.986532	1146.615910	473.677173	-271.229725	1069.651005	417.853697	-207.785517	1139.298363	285.716108	-289.649364	747.244872	478.041206	-407.493829	614.193604	448.553072	-458.935970	588.859111	327.954091	-401.243372	1039.692133	133.505063	-293.019123	1275.764923	173.194786	-331.350259	1243.976303	122.634721	-239.855852	426.053755	330.666132	-389.566351	525.148964	121.598374	-336.179554	460.899918	119.378579	-427.752106	1001.548696	1596.379840	-503.366097	976.776575	1580.853512	-186.603219	1046.476992	1545.702592	-307.998648	930.061722	1611.135084	-354.764294	835.151378	1535.956818	-158.363868	846.414570	1473.937690	-106.090559	746.063650	1439.783704	-87.348349	687.336656	1397.360692	-70.855296	697.916452	1364.721779	-155.342122	913.390080	1503.766033	-575.479482	944.974538	1430.092794	-599.639187	875.820643	1368.067360	-638.712551	864.349427	1299.464298	-660.345124	831.032130	1276.785682	-575.216096	751.981727	1311.008778	-51.699193	899.847349	1218.938735	-104.135840	850.432167	1181.944805	-74.200201	938.011697	1271.635877	-633.123027	1070.140629	1328.703305	-513.044889	1089.020502	1260.645587	-533.174188	1015.352067	1093.130150	-471.532991	
